<?xml version="1.0" encoding="utf-8"?>
<!-- Generator: Adobe Illustrator 25.0.1, SVG Export Plug-In . SVG Version: 6.00 Build 0)  -->
<svg version="1.1" id="Capa_1" xmlns="http://www.w3.org/2000/svg" xmlns:xlink="http://www.w3.org/1999/xlink" x="0px" y="0px"
	 viewBox="0 0 595.3 596.6" style="enable-background:new 0 0 595.3 596.6;" xml:space="preserve">
<style type="text/css">
	.st0{fill:#3D3939;}
</style>
<g>
	<defs>
		<circle id="SVGID_3_" cx="234.5" cy="281.9" r="229"/>
	</defs>
	<clipPath id="SVGID_1_">
		<use xlink:href="#SVGID_3_"  style="overflow:visible;"/>
	</clipPath>
	<g transform="matrix(1 0 0 1 0 9.536743e-07)" style="clip-path:url(#SVGID_1_);">
		
			<image style="overflow:visible;" width="720" height="1080" xlink:href="../../../../F/received_10214517503748441.jpeg"  transform="matrix(0.6642 0 0 0.6642 -5.1772 15.3238)">
		</image>
	</g>
</g>
<g>
	<g>
		<path class="st0" d="M467.4,474c0.7,0,1-0.3,1.1-0.7c0-0.3,5-3.8,5-4c0-0.4,0-0.8-0.1-1.2c0-0.1-0.5-0.3-0.7-0.3
			c-0.3,0-0.9,0.1-1,0.3c-0.5,0.6-5.6,4.5-5.9,5.1C465.4,473.8,466.2,474.2,467.4,474"/>
		<path class="st0" d="M547,533.9c2.1-0.8,3.7-1.6,4.9-2.3c1.2-0.7,1.7-1.3,1.7-1.8c-0.1-0.4-0.5-0.6-1.2-0.6
			c-0.7-0.1-1.7,0.1-3,0.4c-1.2,0.5-3.3,1.2-6.2,2.1c-3.8,1.2-7.6,2.2-11.5,3.1c-5.5,1.3-11,2.4-16.6,3.3
			c-7.1,1.2-14.4,2.2-21.6,3.1c-1.1,0.2-2.7,0.4-4.7,0.6c-2,0.3-4.2,0.5-6.7,0.9c-2.5,0.3-5.1,0.7-8,1.1c-2.8,0.4-5.7,0.8-8.6,1.2
			c-2.9,0.4-5.7,0.9-8.5,1.4c-2.8,0.5-5.4,1-7.7,1.5c-2.4,0.5-4.5,1-6.3,1.4c-1.8,0.4-3.2,0.8-4.2,1c-3.4,0.9-6.7,1.8-9.9,3.2
			c-2.1,0.9-3.1,1.6-3.1,2c0,0.1,0.2,0.2,0.4,0.3c0.2,0.1,0.6,0.1,0.9,0c2-0.4,4.7-1.4,7.7-2.2c3.3-0.9,6.6-1.7,9.9-2.4
			c3.8-0.8,7.8-1.6,11.7-2.3c4.3-0.8,8.7-1.4,13-2c4.6-0.7,9.3-1.3,13.9-1.8c4.8-0.6,9.6-1.2,14.3-1.8c4.7-0.6,9.5-1.2,14.2-1.9
			c4.6-0.7,9.1-1.4,13.6-2.3c0.9-0.1,1.9-0.3,2.9-0.4c1-0.2,1.9-0.3,2.7-0.5c3-0.6,5.8-1.2,8.5-2C542.5,535.5,544.9,534.7,547,533.9
			"/>
		<path class="st0" d="M522.9,510.1c0.7,0,1-0.3,1.1-0.7c0-0.3,0.2-0.5,0.3-0.8c0-0.4,0-0.8-0.1-1.2c0-0.1-0.5-0.3-0.7-0.3
			c-0.3,0-0.9,0.1-1,0.3c-0.5,0.6-0.9,1.2-1.2,1.9C521,509.9,521.7,510.3,522.9,510.1"/>
		<path class="st0" d="M430.1,523.9c-0.3,0-0.9,0.1-1,0.3c-0.5,0.6-0.9,1.2-1.2,1.9c-0.3,0.6,0.5,0.9,1.7,0.8c0.7,0,1-0.3,1.1-0.7
			c0-0.3,0.2-0.5,0.3-0.8c0-0.4,0-0.8-0.1-1.2C430.8,524.1,430.3,523.9,430.1,523.9"/>
		<path class="st0" d="M584.3,516.2c-0.8-0.3-1.7-0.4-2.6-0.5c-0.2,0-0.7,0.2-0.7,0.4c-0.1,0.3,0.1,0.7,0.3,0.9
			c0.8,0.8,1.6,1.5,2.4,2.3c0.5,0.5,0.4,1.1,0,1.5c-1.1,0.9-2.1,1.7-3.2,2.6c-0.1,0-0.1-0.1-0.2-0.1c-1.1,0.7-2.2,1.4-3.3,2.1
			c-1.4,0.9-2.8,1.9-4.3,2.9c-1.2,0.8-2.5,1.6-3.8,2.5c-0.8,0.6-1.6,1.1-2.5,1.8c-0.1,0-0.1-0.1-0.2-0.1c0,0,0,0-0.1,0
			c0-0.5,0-0.7-0.1-1c-0.3-1.9-0.4-3.8-1-5.6c-0.6-2-1.8-3.9-3.4-5.4c-0.1-0.1-0.3-0.5-0.3-0.6c0.4-0.8,0.8-1.6,1.2-2.4
			c0.7-1.4,1.4-2.6,1.3-4.3c0.2-3-1-4.8-2-5.7c-0.4-0.4-0.9-0.7-1.3-0.9c-0.1,0-0.1,0-0.1,0l0,0c-0.2-0.1-0.4-0.1-0.7-0.1
			c-1.6,0-2.9,0.8-4.1,1.7v0l0,0c-0.5,0.4-1,0.8-1.4,1.3l-2.5,2.5c-2.7,3.6-5.2,6.1-7.2,7.9c0,0,0,0,0,0c-0.5,0.4-1,0.9-1.5,1.3
			c-5.1,4.8-7.6,5.1-8.8,4.5c0,0-0.1,0-0.1,0c0,0,0,0-0.1-0.1c-0.1,0-0.1-0.1-0.1-0.1c-0.6-0.5-0.7-1.3-0.7-1.3
			c-0.6-1.6-0.6-4.5,2.3-9.4c0.2-0.4,0.4-0.7,0.6-1c0.1-0.2,0.3-0.4,0.4-0.5l0,0c0.7-0.7,1.3-1.3,2-2c1.1-1.2,2.6-1.9,4.2-2.2
			c0.8-0.2,1.6,0.2,1.9,1c0.1,0.3,0.1,0.7,0,1.1c0,0,0,0,0,0c-0.2,0.3-0.4,0.6-0.7,0.9c-1.7,1.6-1.8,1.7-0.6,3.7
			c0.5,0.8,1.3,1.1,2.1,1c1.1-0.1,1.5-0.6,1.6-1.7c0-0.5,0.1-1,0.3-1.4c0.1-0.2,0.3-0.4,0.4-0.7c0,0,0,0,0,0c0-0.1,0.1-0.2,0.1-0.2
			c0,0,0,0,0,0l0,0c0.5-1.6,0.5-3-0.4-4.6c-1.3-2.2-4.5-3.6-6.7-2.8c-1.7,0.6-3.2,1.5-4.4,3c-0.4,0.4-0.8,0.9-1.1,1.3c0,0,0,0,0,0.1
			c-0.5,0.6-0.9,1.1-1.3,1.7c0-0.1-0.1-0.3-0.1-0.4c-0.5-0.1-1-0.3-1.5-0.3c-1.2,0.1-1.2,1.4-1.5,2.1c-0.6,1.1-0.8,2.5-1.2,3.8
			c-0.1,0.2-0.2,0.5-0.3,0.7c0,0,0,0,0,0c-0.4,1.2-0.6,2.3-0.8,3.3c-0.2,0.3-0.5,0.7-0.8,1c-0.8,1-1.8,1.9-2.6,2.9
			c-1.3,1.5-2.8,2.6-4.5,3.2c-1.2,0.4-1.9,0-1.9-1.3c0-1.4,0.1-2.6,0.7-4c0.5-1.3,0.8-2.8,1.4-4.2c0.5-1.2,1.1-2.3,1.7-3.5
			c0.1-0.2,0.2-0.4,0.2-0.7c0.1-0.9-0.5-2.2-1.3-2.4c-0.5-0.1-1.2,0-1.7,0.3c-0.4,0.3-0.6,1-0.9,1.5c-1,2-2.1,3.9-3.1,5.9
			c-0.4,1.2-0.6,2.2-0.7,3.2c-0.4,0.5-0.9,1.1-1.3,1.5c-0.9,1-1.8,1.9-2.6,2.9c-1.3,1.5-2.8,2.6-4.5,3.2c-1.2,0.4-1.9,0-1.9-1.3
			c0-0.1,0-0.2,0-0.3c0,0-0.1-0.7,0.2-2.4l5.1-9.5v0c0.3-1,0.7-2,1.2-3c0.4-0.9,0.1-2.4-0.7-2.9c-0.6-0.5-1.4-0.2-1.7,0.5
			c-0.6,1.4-1.1,2.9-1.8,4.3c-1.5,3.4-3,6.7-5.2,9.7c-1,1.3-1.9,2.8-2.9,4.1c-0.8,1-1.7,2.1-3,2.4c-0.6,0.1-1-0.1-1.1-0.7
			c-0.2-2-0.2-4,0.5-6c0.2-0.5,0.4-1,0.6-1.5c0.5-1.1,1-2.2,1.5-3.2c0.3-0.6,0.6-1.3,1.1-1.8c1-1.1,1.3-2.4,0.7-3.8
			c-0.2-0.5-0.9-1.1-1.3-1.1c-0.6,0-1.4,0.4-1.7,0.9c-0.4,0.8-0.8,1.6-1.2,2.4c0,0,0,0,0,0l-1.7,3.4c-0.4,0.8-0.7,1.6-1.1,2.3v0l0,0
			c-0.8,1.6-1.8,3.2-2.9,4.7c-1,1.3-1.9,2.8-2.9,4.1c-0.8,1-1.7,2.1-3,2.4c-0.6,0.1-1-0.1-1.1-0.7c-0.2-2-0.2-4,0.5-6
			c0.2-0.5,0.4-1,0.6-1.5c0.5-1.1,1-2.2,1.5-3.2c0.3-0.6,0.6-1.3,1.1-1.8c1-1.1,1.3-2.4,0.7-3.8c-0.2-0.5-0.9-1.1-1.3-1.1
			c-0.6,0-1.4,0.4-1.7,0.9c-0.3,0.6-0.6,1.1-0.9,1.7c-0.1,0.2-0.2,0.4-0.3,0.7c-0.4,1-0.9,1.9-1.3,2.9c0,0,0,0.1-0.1,0.1
			c-1.4,3.5-1.9,6.3-1.9,6.3c0,0.1,0,0.2,0,0.3c-0.5,0.6-1.1,1.3-1.3,1.5c-0.9,1-1.8,1.9-2.6,2.9c-1.3,1.5-2.8,2.6-4.5,3.2
			c-1.2,0.4-1.9,0-1.9-1.3c0-0.1,0-0.2,0-0.3h0c0,0-0.1-1.1,0.5-3.8c0.2-0.3,0.4-0.5,0.6-0.8c0.5-0.8,1-1.6,1.4-2.4
			c0.6-1,1.2-1.9,1.6-2.9c0.6-1.5,1-3.1,1.5-4.7c0.1-0.2,0.2-0.3,0.3-0.5c0.7-1.9,0.9-3.8,0.5-5.7c-0.2-1.1-1.4-1.4-2.3-0.7
			c-0.4,0.3-0.7,0.8-1,1.2c-0.5,0.7-1,1.5-1.4,2.3c-0.6,1-1.2,1.9-1.7,2.9c-0.6,1.2-1,2.5-1.5,3.7c0,0.1-0.1,0.2-0.2,0.4
			c-0.6,1.3-1.3,2.6-1.6,4c-0.3,1.1-0.5,2.2-1,3.1c0,0,0,0-0.1,0.1c-0.6,0.8-1.1,1.6-1.7,2.3c-0.9,1-1.8,1.9-2.6,2.9
			c-1.3,1.5-2.8,2.6-4.5,3.2c-1.2,0.4-1.9,0-1.9-1.3c0-0.9,0-1.7,0.2-2.6c0,0,0.1-0.1,0.1-0.1c0.1-0.2,0.2-0.4,0.3-0.7
			c0.7-1.1,1.2-2.2,1.7-3.3l0.2-0.4c0.3-0.7,0.6-1.4,0.9-2c0.2-0.4,0.4-0.8,0.6-1.3c0.2-0.4,0.3-0.7,0.5-1.1c0.3-0.5,0.5-1,0.7-1.6
			c0.7-1.6,1.4-3.3,2-4.9l0.3-0.7c0.4-1,0.9-2.1,1.3-3.2c0.6-1.6,1.1-3,1.5-4.4c0.5-1.7,0.8-3.1,1-4.4c0.2-1.1,0.1-2.1,0.1-3.3
			c-0.1-2.1-1-3.5-2.8-4.3c-0.6-0.3-1.4-0.4-2-0.3c-0.5,0.1-0.9,0.3-1.2,0.6c-0.6,0.6-1.3,1.4-1.9,2.3c-0.7,1-1.3,2.1-1.9,3.2
			c-0.2,0.4-0.4,0.7-0.6,1.1c-0.6,1.1-1.2,2.1-1.7,3.3c-0.6,1.6-1.2,3.2-1.7,4.8c-0.2,0.6-0.4,1.2-0.6,1.7c-0.1,0.3-0.1,0.7-0.2,0.9
			c0,0.2,0,0.3-0.1,0.5c-0.1,0.4-0.2,0.7-0.3,1.1c-0.2,0.7-0.4,1.4-0.5,2.1c-0.3,2.2-0.5,4.2-0.6,6.1c-0.1,1.9,0,3.8,0.4,5.9
			c0.1,0.7,0.2,1.3,0,1.8c0,0,0,0.1-0.1,0.1c-0.2,0.2-0.3,0.4-0.4,0.5c-0.9,1-1.8,1.9-2.6,2.9c-1.3,1.5-2.8,2.6-4.5,3.2
			c-1.2,0.4-1.9,0-1.9-1.3c0-0.1,0-0.2,0-0.3c0,0-0.1-1.1,0.5-3.8c0.2-0.3,0.4-0.5,0.6-0.8c0.5-0.8,1-1.6,1.4-2.4
			c0.6-1,1.2-1.9,1.6-2.9c0.6-1.5,1-3.1,1.5-4.7c0.1-0.2,0.2-0.3,0.3-0.5c0.7-1.9,0.9-3.8,0.5-5.7c-0.2-1.1-1.4-1.4-2.3-0.7
			c-0.4,0.3-0.7,0.8-1,1.2c-0.5,0.7-1,1.5-1.4,2.3c-0.6,0.9-1.2,1.9-1.7,2.9c-0.6,1.2-1,2.5-1.5,3.7c0,0.1-0.1,0.2-0.2,0.4
			c-0.6,1.3-1.3,2.6-1.6,4c-0.3,1-0.5,2.1-0.9,3c-0.1,0.1-0.1,0.2-0.2,0.2c-0.6,0.8-1.1,1.6-1.7,2.3c-0.9,1-1.8,1.9-2.6,2.9
			c-1.3,1.5-2.8,2.6-4.5,3.2c-1.2,0.4-1.8,0-1.9-1.3c0-1.4,0.1-2.6,0.7-4c0.5-1.3,0.8-2.8,1.4-4.2c0.5-1.2,1.1-2.3,1.7-3.5
			c0.1-0.2,0.2-0.4,0.2-0.7c0.1-0.9-0.5-2.2-1.3-2.4c-0.5-0.1-1.2,0-1.7,0.3c-0.4,0.3-0.6,1-0.9,1.5c-1,2-2.1,3.9-3.1,5.9
			c-0.1,0.4-0.2,0.8-0.3,1.2c-0.8,1.7-1.5,3.3-1.9,4.1c0,0,0,0,0,0.1c-0.7,1.4-1.4,2.8-2.2,4.2c-0.1,0.1-0.2,0.2-0.3,0.4l0,0
			c0,0,0,0,0,0c0,0-0.1,0.1-0.1,0.1c0,0,0,0,0,0c0,0.1-0.1,0.2-0.1,0.2c0,0,0,0.1,0,0.1c-0.1,0.2-0.2,0.4-0.3,0.5
			c-0.1,0.1-0.2,0.2-0.3,0.3c-0.5,0.5-0.6,0.9-0.2,1.4c0.3,0.4,0.8,0.7,1.4,0.5c1.5-0.3,1.5-0.4,1.6-1.8c0,0,0,0,0,0l2.1-3.8
			c0,0,0,0,0,0c0.4,0.9,0.8,1.6,1.1,2.4c0.8,1.8,3.7,2.4,5.2,1.8c2.6-1,4.4-3.3,6.4-5.2c0.7-0.7,1.3-1.5,2-2.3l0,0
			c0,0,0.1,0,0.1-0.1c0,0,0.1,0,0.1-0.1l0,0.1l-0.1,0c0,0,0.4,2.4,1.9,3.8c0.1,0.1,0.3,0.2,0.4,0.4c0.2,0.1,0.4,0.2,0.6,0.3
			c0,0,0,0,0.1,0c0,0,0,0,0.1,0c0,0,0,0,0,0c1.2,0.5,2.6,0.6,3.5,0.2c2.6-1,4.4-3.3,6.4-5.2c0.2-0.2,0.5-0.5,0.8-0.8
			c0.3,0.7,0.7,1.3,0.9,2c0.8,1.8,3.7,2.4,5.2,1.8c2.6-1,4.4-3.3,6.4-5.2c0.7-0.7,1.3-1.5,2-2.3l0,0c0,0,0,0,0.1,0
			c0,0,0.1,0,0.1-0.1l0,0.1l-0.1,0c0,0,0.4,2.4,1.9,3.8c0.1,0.1,0.3,0.3,0.4,0.4c0.2,0.1,0.4,0.2,0.6,0.3c0,0,0,0,0.1,0
			c0,0,0,0,0.1,0c0,0,0,0,0,0c1.2,0.5,2.6,0.6,3.5,0.2c2.6-1,4.4-3.3,6.4-5.2c0.3-0.3,0.7-0.7,1.1-1.1c0.2,0.6,0.4,1.1,0.5,1.6
			c0.7,2.6,3.7,3.7,5.7,2.1c1-0.8,1.9-1.8,2.7-2.8c1.1-1.5,2.1-3,3.2-4.5c0.4,1.1,0.8,2,1,3c0.7,2.6,3.7,3.7,5.7,2.1
			c1-0.8,1.9-1.8,2.7-2.8c0.4-0.6,0.9-1.2,1.3-1.8c0.2,0.4,0.4,0.8,0.6,1.2c0.8,1.8,3.7,2.4,5.2,1.8c2.6-1,4.4-3.3,6.4-5.2
			c0.3-0.3,0.8-0.8,1.2-1.3c0.4,0.8,0.8,1.5,1.1,2.2c0.8,1.8,3.7,2.4,5.2,1.8c2.6-1,4.4-3.3,6.4-5.2c0.1-0.1,0.3-0.3,0.4-0.4
			c0,0.1,0.1,0.3,0.1,0.4c0.5,0.9,0.8,1.7,1.5,2.3c1.1,1.1,2.4,1.6,3.8,1.6c0,0,0,0,0,0c0.1,0,0.3,0,0.4-0.1
			c2.3-0.5,5.8-2.7,8.5-4.6c1.1-0.9,2.4-1.9,3.7-3.1l0,0c0,0,0,0,0.1,0c0,0,0,0,0,0c1.3-1.2,2.8-2.6,4.3-4.1l3.5-3.7l0,0.1
			c0.2-0.3,0.4-0.5,0.7-0.8l1.5-1.6c0.5-0.5,1.1-0.9,1.8-1.3c0.6-0.3,1.1-0.4,1.5-0.2v0l0,0c0.3,0.1,0.5,0.5,0.6,0.9
			c0.4,1,0.5,2.7-1.3,5.3c0,0,0,0,0,0c-0.8,1.6-1.8,2.9-3.2,3.9c-1,0.6-0.7,1.5-0.6,2.4c0.1,0.9,1,1.6,1.9,1.8
			c1,0.3,1.6-0.3,2.3-0.8c0.4-0.3,0.8-0.3,1.1,0.2c0.9,1.2,1.8,2.5,2,3.9c0.3,1.8,0.3,3.7,0.5,5.5c0,0.3,0,0.6,0,0.9
			c-1.5,0.8-2.8,1.8-4,2.8c-1.4,1.3-2.9,2.7-4.4,4.4c-0.5,0.5-0.9,1.1-1.3,1.7c-0.2,0.3-0.4,0.6-0.7,0.9c-0.1,0.1-0.2,0.3-0.4,0.4
			c-0.2,0.2-0.4,0.4-0.6,0.7c-0.3,0.5-0.7,1.1-1,1.6c-0.9,1.4-1.8,2.9-2.7,4.5c-0.6,1.1-1.1,2.3-1.5,3.5c-0.1,0.4-0.3,0.8-0.5,1.2
			c-0.5,1.3-1,2.5-1.3,3.7c-0.3,1.1-0.5,2.2-0.6,3.1c-0.1,0.5,0,0.9,0.3,1.4c0.3,0.6,0.9,1.2,1.5,1.6c1.7,1,3.5,0.9,5.2-0.3
			c1-0.7,1.8-1.3,2.5-2.1c0.9-1,1.8-2.2,2.8-3.6c0.9-1.3,1.7-2.6,2.5-4.1c0.6-1,1.2-2.1,1.7-3.1l0.4-0.7c0.8-1.6,1.7-3.2,2.5-4.8
			c0.3-0.5,0.5-1.1,0.8-1.6c0.2-0.4,0.3-0.8,0.5-1.1c0.2-0.4,0.4-0.9,0.6-1.3c0.1-0.3,0.3-0.6,0.4-0.9c0.7-2,1-3.8,1.2-5.5l1.8-1.6
			l-1.1,0.8c0.4-0.3,0.9-0.7,1.4-1c2.6-1.9,5.3-3.7,8-5.4c0.9-0.6,1.7-1.1,2.6-1.6c0.5-0.3,1-0.5,1.4-0.8c1.9-1.1,3.6-2.6,5.1-4.2
			C588.4,520.7,586.9,517,584.3,516.2 M468.7,526.3c0.1-0.5,0.2-0.9,0.3-1.4l0.1-0.3c0.1-0.3,0.2-0.7,0.3-1c0.1-0.3,0.3-0.6,0.4-0.9
			c0.1-0.1,0.1-0.3,0.2-0.4c0.2-0.4,0.4-0.9,0.7-1.3c0.3-0.5,0.7-1,1.1-1.4l0.1-0.1c0.2-0.2,0.3-0.4,0.5-0.6
			c0.1-0.1,0.1-0.1,0.2-0.2c0,0.1,0.1,0.3,0,0.4c-0.1,0.3-0.1,0.5-0.2,0.8c0,0.2-0.1,0.3-0.1,0.5c-0.2,0.8-0.6,1.5-0.9,2.1l-0.1,0.2
			c-0.1,0.2-0.2,0.4-0.3,0.7c-0.2,0.3-0.3,0.6-0.5,0.9c-0.2,0.3-0.3,0.5-0.5,0.8c-0.1,0.2-0.2,0.4-0.4,0.6c-0.2,0.3-0.3,0.5-0.5,0.8
			c-0.1,0.2-0.2,0.4-0.3,0.6C468.7,526.7,468.7,526.5,468.7,526.3 M452.8,527.2c0.1-1.4,0.2-2.8,0.4-4.2l0.1-0.8
			c0.1-1,0.2-2.1,0.4-3.1c0.2-1,0.5-1.9,0.8-2.7c0.2-0.4,0.3-0.8,0.5-1.3c0.5-1.4,1-2.8,1.6-4.2c0.8-1.6,1.7-3.2,2.7-4.7l0.1-0.2
			c0.4-0.7,0.9-1.3,1.4-2c0.2-0.2,0.3-0.4,0.5-0.6c0.2,0.4,0.3,0.7,0.3,1c-0.1,0.8-0.2,1.6-0.3,2.3c-0.1,0.5-0.2,1-0.2,1.5
			c-0.3,2.3-1.2,4.5-2,6.7l-0.2,0.6c-0.3,0.7-0.5,1.4-0.8,2.1c-0.3,1-0.7,1.9-1.1,2.9c-0.4,0.8-0.8,1.7-1.2,2.5
			c-0.3,0.6-0.6,1.2-0.9,1.8c-0.4,0.8-0.8,1.7-1.1,2.5c-0.3,0.6-0.5,1.2-0.8,1.8C452.8,528.4,452.8,527.8,452.8,527.2 M440.4,531.3
			c0.1-0.5,0.2-0.9,0.3-1.4l0.1-0.3c0.1-0.3,0.2-0.7,0.3-1c0.1-0.3,0.2-0.6,0.4-0.9c0.1-0.1,0.1-0.3,0.2-0.4
			c0.2-0.4,0.4-0.9,0.7-1.3c0.3-0.5,0.7-1,1.1-1.4l0.1-0.1c0.2-0.2,0.3-0.4,0.5-0.6c0.1-0.1,0.1-0.1,0.2-0.2c0,0.1,0.1,0.3,0,0.4
			c-0.1,0.3-0.1,0.5-0.2,0.8c0,0.2-0.1,0.3-0.1,0.5c-0.2,0.8-0.6,1.5-0.9,2.1l-0.1,0.2c-0.1,0.2-0.2,0.4-0.3,0.7
			c-0.2,0.3-0.3,0.6-0.5,0.9c-0.2,0.3-0.3,0.5-0.5,0.8c-0.1,0.2-0.2,0.4-0.4,0.6c-0.2,0.3-0.3,0.5-0.5,0.8c-0.1,0.2-0.2,0.4-0.3,0.6
			C440.3,531.7,440.4,531.5,440.4,531.3 M562.2,540.6c-0.4,0.9-0.9,1.7-1.3,2.6c-0.3,0.6-0.6,1.3-0.9,1.9c-0.4,0.9-0.8,1.8-1.2,2.6
			c-0.5,0.9-1,1.9-1.6,2.8c-0.4,0.7-0.8,1.3-1.1,2l-0.3,0.6c-1.1,2.1-2.3,4.3-3.9,6c-0.3,0.4-0.7,0.7-1,1.1
			c-0.5,0.6-1.1,1.2-1.6,1.7c-0.2,0.2-0.6,0.3-1,0.4c0.1-0.3,0.1-0.6,0.2-0.8c0.2-0.9,0.4-1.7,0.6-2.5l0.1-0.2
			c0.6-1.8,1.2-3.6,2-5.3c0.7-1.4,1.5-2.7,2.2-4c0.2-0.4,0.5-0.8,0.7-1.2c0.4-0.7,1-1.6,1.6-2.4c0.7-0.8,1.4-1.6,2.2-2.3l0.6-0.6
			c0.9-0.9,1.8-1.8,2.7-2.6l1.7-1.1C562.7,539.7,562.5,540.1,562.2,540.6"/>
		<path class="st0" d="M353.4,522.5c0.5-1.1,1-2.3,1.4-3.4c0.5-1.3,0.7-2.6,1.2-3.9c0.5-1.3,0.8-2.7,1-4.1c0-0.2,0.1-0.5,0.1-0.8
			c0-0.3,0.1-0.7,0.1-1c0.6-5.5-0.8-9.3-1.9-11.3c-0.7-1.3-1.6-2.4-2.6-3.3c-2-1.8-4.4-3.2-6.8-4.4c-1.1-0.5-2.2-1-3.3-1.4
			c-0.1,0-0.2-0.1-0.3-0.1c-1.4-0.5-2.8-1-4.2-1.5c-7.1-2.3-19.3-5.7-19.3-5.7v0c-0.9-0.2-1.8-0.4-2.7-0.6c-1.9-0.5-3.8-1.1-5.6-2.6
			c-0.5-0.4-0.9-1.1-1.1-1.7h0c0,0-1-1.7,3-4.7c0,0,0,0,0,0c0.9-0.7,2.1-1.5,3.7-2.5c0,0,0,0,0,0c1.1-0.7,2.2-1.3,3.4-1.8
			c2.5-1.1,5-2.1,7.6-2.9c1.7-0.5,3.5-0.9,5.3-0.9c2.3-0.1,4.6,0.2,6.9,0.5c0.5,0.1,0.9,0.5,0.8,1.2c-0.1,1.1-0.4,2.2-0.5,3.2
			c0,0.3,0.1,0.7,0.3,0.9c0.1,0.1,0.6,0.1,0.7-0.1c0.6-0.6,1.2-1.2,1.6-1.8c1.2-1.9,0.7-5.1-1.2-6.2c-2.5-0.9-5.5-1-8.4-0.8
			c-2.5,0.3-4.9,0.8-7.3,1.3c-2.3,0.6-3.9,1.2-4.1,1.3c-0.4,0.2-0.9,0.4-1.3,0.6c-0.1,0-0.2,0.1-0.3,0.1c-1.3,0.6-2.6,1.3-3.8,2.1
			c-0.5,0.3-1,0.6-1.5,1c-1,0.7-1.9,1.3-2.6,2c-0.1,0.1-0.2,0.2-0.4,0.3c-0.8,0.6-1.4,1.2-2,1.7c-1.3,1.3-1.9,2.3-2.2,3.1
			c-0.1,0.4-0.2,0.7-0.2,1.1c-0.1,0.6-0.1,1.4,0.1,2.1c0.7,2.2,2.2,3.8,4,4.6c1.1,0.5,2.3,1,3.5,1.4l0,0c0,0,0,0,0,0
			c0.9,0.3,1.8,0.6,2.7,0.8c0.7,0.2,1.4,0.3,2.1,0.5c6.2,1.7,17.1,4.9,23.3,7.3c0.6,0.3,1.2,0.5,1.8,0.8c2.1,1,4.2,2.1,6.1,3.6
			c1.6,1.4,4.8,5.1,4.3,12.2h0c0,0,0,0,0,0c-0.1,1.7-0.4,3.6-1,5.7c-1.4,5.5-3.8,10.1-6,13.6c-0.4,0.6-0.8,1.2-1.2,1.8
			c-1,1.4-2.1,2.8-3.2,4c-0.2,0.2-0.4,0.4-0.5,0.6c-0.4,0.4-0.6,0.6-0.6,0.6h0c-1.7,1.7-3.3,3.3-5.1,4.8c-0.7,0.6-1.4,1.1-2.2,1.5
			c0,0,0,0,0,0c-0.2,0.1-0.3,0.2-0.5,0.3c-11.2,6.6-19.4,5.3-22,4.6c-0.1,0-0.2,0-0.3,0c-0.2,0-0.4-0.1-0.5-0.2l0,0h0
			c-0.2-0.2-0.4-0.6-0.3-1c0.1-1.1,0.4-2.2,0.5-3.2c0-0.3-0.1-0.7-0.3-0.9c-0.1-0.1-0.6-0.1-0.7,0.1c-0.6,0.6-1.2,1.2-1.6,1.8
			c-1.4,2.1-0.5,6,2,6.6c2,0.4,4,0.7,6,0.6c3.2-0.3,6.4-0.9,9.6-1.7c3.1-0.7,6-2.2,8.8-3.9c2.3-1.4,4.5-2.9,6.4-5
			c1.1-1.3,2.4-2.4,3.5-3.7c1.1-1.3,2.1-2.6,3-4.1c1.3-2,2.4-4,3.6-6.1C352.6,524.5,353,523.5,353.4,522.5"/>
		<path class="st0" d="M413.2,503.1c1.8-0.9,3-2.4,4.2-3.9c0.3-0.3,0.5-0.6,0.7-0.9c0.3,0.4,0.5,0.8,0.8,1.1c0.2,0.3,0.3,0.6,0.4,1
			c0.8,1.8,3.7,2.4,5.2,1.8c1.1-0.4,2-1,2.9-1.8c0.1-0.1,1.9-1.7,3.7-4.3c0.4-0.7,0.8-1.4,1.3-2.1c0,0,0,0,0,0
			c0.2-0.3,0.3-0.5,0.4-0.6c0.9-1.5,1.9-3,2.8-4.5c1-1.5,1.9-3,2.9-4.4c0.5-0.7,1.1-1.3,1.7-2c0.1,0.1,0.2,0.1,0.3,0.2
			c-0.4,0.8-0.8,1.7-1.1,2.5c-0.5,1.6-0.9,3.3-1.3,4.9c-0.2,0.5-0.4,0.9-0.5,1.4c-0.5,1.3-0.8,2.7-1.5,3.9c-0.5,0.9-0.8,1.7-1,2.6
			c-0.1,1.3,0.6,2.2,1.7,2.3c0.9,0.1,1.6-0.7,1.9-1.9c0.1-0.3,0.2-0.6,0.3-0.8c0.6-1.2,1.3-2.4,1.9-3.6c0.5-0.9,0.9-1.8,1.4-2.6
			c1.3-2,2.7-4.1,4.1-6.1c0.6-0.9,1.3-1.6,2-2.5c0.1,0.1,0.2,0.1,0.3,0.2c-0.4,0.8-0.8,1.7-1.1,2.5c-0.3,0.9-0.5,1.8-0.7,2.7
			c-0.2,0.5-0.3,1.1-0.4,1.6c0,0,0,0,0,0c0,0,0,0,0,0c0,0,0,0,0,0c0,0,0,0,0,0.1c0,0,0,0,0,0c0,0,0,0.1,0,0.1c0,0,0,0,0,0
			c0,0,0,0.1,0,0.1c0,0,0,0,0,0.1c0,0.1,0,0.1,0,0.2c0,0,0,0,0,0c0,0.1,0,0.2,0,0.2c-0.1,1.1-0.2,2.7,0.2,4c0.1,0.2,0.2,0.5,0.3,0.7
			c0.1,0.3,0.4,0.6,0.6,0.9c0,0,0,0,0.1,0.1c1.2,1.1,3.3,1.3,4.5,0.9c2.6-1,4.4-3.3,6.4-5.2c0.3-0.3,0.8-0.8,1.2-1.3
			c0.4,0.8,0.8,1.5,1.1,2.2c0.8,1.8,3.7,2.4,5.2,1.8c2.6-1,4.4-3.3,6.4-5.2c0.5-0.4,0.9-0.9,1.3-1.4c0.3,0.6,0.6,1.2,1,1.8
			c0,0,0,0,0,0c0.1,0.2,0.3,0.4,0.4,0.5c1.8,1.7,3.9,2,6.3,0.9c1.8-0.9,3-2.4,4.2-3.9c0.2-0.3,0.5-0.6,0.7-0.8l0,0
			c0.3,0.4,0.5,0.8,0.9,1.1c0.8,0.7,1.6,1.3,2.5,1.9c1.5,1,3.1,1.1,4.7,0.2c1.3-0.7,2.4-1.5,3.4-2.7c0.6-0.7,1.3-1.3,1.6-2.1
			c0,0,0,0,0,0c0,0,0,0,0,0c0-0.1,0.1-0.2,0.1-0.3c0,0,0-0.1,0.1-0.1c0.1-0.3,0.4-0.5,0.6-0.6c0.5-0.4,0.7-0.8,0.3-1.4
			c-0.3-0.4-0.7-0.7-1.3-0.7c-1.3,0.1-1.5,0.2-1.7,1.2c-0.5,0.5-0.9,1-1.4,1.5c-1,1-2,2-3.3,2.4c-0.9,0.3-2.4-0.2-3-0.8
			c-0.2-0.6-0.3-1.2-0.3-1.3c-0.1-1.3,0.1-1.8,0.4-3c0.4-1.7,1.3-3.3,1.9-5c0.2-0.4,0.2-1.2-0.1-1.5c-1.4-1.4-1.3-3.6-2.1-5.3
			c-0.6-1.2-2.1-2.5-3.4-2.3c-2.4,0.3-4,2-5.5,3.8c-0.6,0.7-1.2,1.5-1.8,2.2c0-0.1-0.1-0.3-0.1-0.4c-0.5-0.1-1-0.3-1.5-0.3
			c-1.2,0.1-1.2,1.4-1.5,2.1c-0.6,1.1-0.8,2.5-1.2,3.8c-0.1,0.2-0.2,0.5-0.3,0.7c0,0,0,0,0,0c-0.4,1.5-0.7,2.7-0.9,3.8
			c-0.5,0.7-0.9,1.3-1.5,2c-0.9,1-1.8,1.9-2.6,2.9c-1.3,1.5-2.8,2.6-4.5,3.2c-1.2,0.4-1.9,0-1.9-1.3c0-1.4,0.1-2.6,0.7-4
			c0.5-1.3,0.8-2.8,1.4-4.2c0.5-1.2,1.1-2.3,1.7-3.5c0.1-0.2,0.2-0.4,0.2-0.7c0.1-0.9-0.5-2.2-1.3-2.4c-0.5-0.1-1.2,0-1.7,0.3
			c-0.4,0.3-0.6,1-0.9,1.5c-1,2-2.1,3.9-3.1,5.9c-0.4,1.2-0.6,2.2-0.7,3.2c-0.4,0.5-0.9,1.1-1.3,1.5c-0.9,1-1.8,1.9-2.6,2.9
			c-1.3,1.5-2.8,2.6-4.5,3.2c-1.2,0.4-1.9,0-1.9-1.3c0-0.1,0-0.2,0-0.3c0,0-0.1-0.5,0.1-1.7c0.1-0.4,0.2-0.8,0.4-1.1
			c0.4-1.2,0.8-2.5,1.2-3.7c0.4-1.1,0.8-2.3,1.2-3.4c0-0.1,0.1-0.1,0.1-0.2c1.1-1.4,1-2.8,0.6-4.3c-0.4-1.4-1.8-1.9-2.8-1.1
			c-0.8,0.6-1.5,1.4-2.2,2.2c-0.9,1.1-1.8,2.2-2.7,3.4c-0.5,0.7-1,1.4-1.6,2.1c-0.1-0.4-0.1-0.8,0-1.1c0.1-0.4,0.2-0.8,0.3-1.1
			c0,0,0-0.1,0-0.1c0-0.1,0.1-0.1,0.1-0.2c1.1-1.4,1-2.8,0.6-4.3c-0.4-1.4-1.8-1.9-2.8-1.1c-0.8,0.6-1.5,1.4-2.2,2.2
			c-0.1,0.2-0.3,0.3-0.4,0.5l-1.9,2.5c-0.6,0.8-1.2,1.6-1.8,2.4c-0.5,0.6-0.9,1.2-1.3,1.9c-0.6,1-1.1,2.1-1.8,3.1
			c-1,1.6-2,3.2-3.1,4.7c0,0,0,0,0,0c-1,1.6-2,2.7-2.8,3.3c0,0,0,0,0,0c0,0,0,0,0,0c-1.1,0.9-1.9,1.2-1.9,1.2l0,0
			c-0.3,0.1-0.5,0.2-0.8,0.3c-0.8,0.3-1.4,0.2-1.7-0.4c-0.1-0.2-0.1-0.4-0.2-0.7c0-0.1,0-0.2,0-0.3c0-0.1,0-0.2,0-0.3
			c0,0-0.3-1.3,0.6-4.6c0.5-1.3,1.1-2.5,1.5-3.8c0.2-0.4,0.2-1.2-0.1-1.5c-1.4-1.4-1.3-3.6-2.1-5.3c-0.6-1.2-2.1-2.5-3.4-2.3
			c-2.4,0.3-4,2-5.5,3.8c-0.6,0.7-1.2,1.5-1.8,2.2c0-0.1-0.1-0.3-0.1-0.4c-0.5-0.1-1-0.3-1.5-0.3c-1.2,0.1-1.2,1.4-1.5,2.1
			c-0.6,1.1-0.8,2.5-1.2,3.8c-0.1,0.2-0.2,0.5-0.3,0.7c0,0,0,0,0,0c-0.3,1.1-0.6,2.1-0.7,3c-0.5,0.7-1,1.4-1.5,2.1
			c-0.9,1-1.8,1.9-2.6,2.9c-1.3,1.5-2.8,2.6-4.5,3.2c-1.2,0.4-1.8,0-1.9-1.3c0-1.1-0.1-2.4,0.2-3.6c0.2-0.8,0.4-1.5,0.7-2.3
			c0.3-1.1,0.7-2.1,1.1-3.2c1-2.7,2-5.4,3-8.1c0.6-1.7,1-3.4,1.5-5.1c0.1-0.2,0.2-0.4,0.2-0.7c0.6-1.6,1.3-3.3,1.9-4.9
			c0.1-0.3,0.2-0.6,0.3-0.8c0.6-1.4,1.2-2.9,1.7-4.3c0.5-1.5,0.8-3.2,1.4-4.7c0.4-1,0.8-1.8-0.1-2.7c-0.3-0.3-0.4-1-1-0.8
			c-0.6,0.2-1.2,0.5-1.4,1.3c-0.2,0.8-0.5,1.5-0.7,2.2c-0.5,1.7-0.9,3.3-1.4,5c-0.4,1.4-0.8,2.8-1.3,4.2c0,0,0,0.1,0,0.1
			c-0.6,1.4-1.2,2.7-1.7,4.1c-1,2.6-1.8,5.2-2.8,7.7c-0.3,0.8-0.6,1.6-1,2.3c0,0.1,0,0.2-0.3,0.6c-0.3,0.6-0.5,1.1-0.8,1.7
			c-0.8,2-1.6,4.9-2.4,7.7c-0.6,0.7-1.2,1.5-1.5,1.8c-0.9,1-1.8,1.9-2.6,2.9c-1.3,1.5-2.8,2.6-4.5,3.2c-1.2,0.4-1.9,0-1.9-1.3
			c0-0.1,0-0.2,0-0.3c0,0-0.1-1.1,0.5-3.8c0.2-0.3,0.4-0.5,0.6-0.8c0.5-0.8,1-1.6,1.4-2.4c0.6-1,1.2-1.9,1.6-2.9
			c0.6-1.5,1-3.1,1.5-4.7c0.1-0.2,0.2-0.3,0.3-0.5c0.7-1.9,0.9-3.8,0.5-5.7c-0.2-1.1-1.4-1.4-2.3-0.7c-0.4,0.3-0.7,0.8-1,1.2
			c-0.5,0.7-1,1.5-1.4,2.3c-0.6,1-1.2,1.9-1.7,2.9c-0.6,1.2-1,2.5-1.5,3.7c0,0.1-0.1,0.2-0.2,0.4c-0.5,1.3-1.3,2.6-1.6,4
			c-0.3,1.3-0.6,2.6-1.3,3.7c-0.4,0.5-0.9,1.2-1.4,1.6c-0.8,1-1.8,1.9-2.6,2.9c-1.3,1.5-2.8,2.6-4.5,3.2c-1.2,0.4-1.9,0-1.9-1.3
			c0-0.1,0-0.2,0-0.3h0c0,0-0.1-0.6,0.2-2.1c0.4-1.2,0.7-2.4,1.1-3.6c0.3-1.1,0.7-2.1,1.1-3.2c1-2.7,2-5.4,3-8.1
			c0.6-1.7,1-3.4,1.5-5.1c0.1-0.2,0.1-0.4,0.2-0.6c0.4-0.1,0.8-0.1,1.2-0.2c1-0.2,1.9-0.4,2.9-0.6c0.9-0.2,1.8-0.6,2.6-1
			c0.2,0,0.4-0.1,0.6-0.2c0.2-0.1,0.4-0.1,0.5-0.2c0.5-0.3,1-0.7,1.4-1.1c0.4-0.4,0.7-1,0.9-1.5c0.2-0.5,0.3-1.1,0.4-1.7
			c0-0.5-0.1-1.1-0.2-1.5c-0.2-0.3-0.3-0.6-0.5-0.7c-0.2-0.1-0.4-0.1-0.6,0.1c-0.1,0.3-0.4,0.8-0.8,1.4c-0.5,0.7-1.1,1.4-1.7,1.9
			c-0.9,0.7-1.9,1.2-2.9,1.7c-0.8,0.3-1.7,0.6-2.6,0.8c0.3-0.7,0.6-1.5,0.8-2.2c0.1-0.3,0.2-0.6,0.3-0.8c0.6-1.4,1.2-2.9,1.7-4.3
			c0.5-1.5,0.8-3.2,1.4-4.7c0.4-1,0.8-1.8-0.1-2.7c-0.3-0.3-0.4-1-1-0.8c-0.6,0.2-1.2,0.5-1.4,1.3c-0.2,0.8-0.5,1.5-0.7,2.2
			c-0.5,1.7-0.9,3.3-1.4,5c-0.4,1.4-0.8,2.8-1.3,4.2c0,0,0,0.1,0,0.1c-0.5,1.1-0.9,2.2-1.4,3.2c-0.3,0-0.6,0.1-0.9,0.1
			c-0.5,0.1-1,0.2-1.6,0.3c-0.6,0.1-1.1,0.3-1.7,0.4c-0.6,0.2-1.1,0.4-1.6,0.6c-0.5,0.2-1,0.5-1.4,0.7c-0.4,0.3-0.8,0.5-1.1,0.7
			c-0.3,0.2-0.5,0.4-0.7,0.6c-0.5,0.5-1,1.1-1.3,2.1c-0.2,0.7-0.2,1.2,0,1.6c0.1,0.1,0.1,0.2,0.2,0.3c0.1,0.1,0.2,0.1,0.2,0.1
			c0.3-0.2,0.7-0.9,1.1-1.4c0.5-0.5,1-1,1.6-1.4c0.7-0.4,1.4-0.8,2.1-1.1c0.8-0.3,1.7-0.6,2.5-0.8c0.5-0.1,1-0.2,1.5-0.3
			c-0.7,2-1.4,3.9-2.1,5.9c-0.4,1-0.8,2-1.2,2.9c-0.1,0.2-0.2,0.4-0.2,0.5h0c-1.1,2.6-3.2,10.5-4.3,14.4c0,0,0,0,0.1,0.1
			c-0.4,1.5-0.9,3-1.3,4.5c-0.1,0.1-0.1,0.3-0.2,0.4l0,0c0,0,0,0,0,0c0,0,0,0.1-0.1,0.2c0,0,0,0,0,0c0,0.1,0,0.2,0,0.2
			c0,0,0,0.1,0,0.1c-0.1,0.2-0.1,0.4-0.2,0.6c-0.1,0.1-0.2,0.3-0.2,0.4c-0.4,0.6-0.4,1,0.1,1.4c0.4,0.3,0.9,0.5,1.5,0.3
			c1.4-0.5,1.4-0.6,1.2-2c0,0,0,0,0,0l1.3-3.8c1.1,1.3,3.5,1.7,4.9,1.2c2.6-1,4.4-3.3,6.4-5.2c0.5-0.5,1.4-1.5,2-2.2
			c0.1,0.5,0.8,4.1,3.4,4.6l0,0c1.1,0.4,2.3,0.4,3.1,0.1c2.4-0.9,4.1-2.9,5.9-4.7c-0.4,1.5-0.9,3-1.3,4.4c-0.4,1.4-0.8,2.7-1.3,4
			c0,0.1-0.1,0.2-0.2,0.4c-0.5,1.7-1.1,3.3-1.6,5c-0.2,0.5-0.3,1.1-0.6,1.4c-0.5,0.5-1.2,0.9-1.9,1.4c-1.8,1.3-3.6,2.5-5.3,3.9
			c-1.2,1-2.3,2.1-3.5,3.2c-1.4,1.3-2.8,2.7-4.2,4c-1.2,1.1-2.4,2.1-3.7,3c-1.5,1-1.8,1.8-1.5,3.5c0.2,0.8,0.7,1.3,1.3,1.3
			c0.6,0,1.3-0.3,1.8-0.7c0.6-0.5,0.9-1.4,1.4-2c1.1-1.3,2.4-2.4,3.6-3.6c0.9-0.9,1.7-1.7,2.6-2.6c1-0.9,1.9-1.8,2.9-2.7
			c0.9-0.8,1.9-1.6,2.9-2.4c0.6-0.4,1.1-0.9,1.7-1.3c0.1,0.1,0.2,0.2,0.2,0.3c-0.1,0.5-0.1,1-0.3,1.4c-0.6,1.7-1.2,3.5-1.8,5.2
			c-0.2,0.6-0.3,1.2-0.5,1.7c-0.7,2-1.4,4-2.1,5.9c-0.1,0.2-0.1,0.3-0.1,0.5c-0.6,1.6-1.3,3.3-1.9,4.9c-0.2,0.5-0.4,1.1-0.6,1.6
			c-0.4,1.1-0.9,2.2-1.3,3.3c-0.6,1.6-1.1,3.3-1.6,4.9c0,0.1-0.1,0.2-0.2,0.2c-0.8,1.8-1,3.7-0.7,5.6c0.1,0.5,1.3,1.3,1.7,1
			c0.3-0.2,0.7-0.8,0.7-1.2c-0.3-2.5,0.8-4.7,1.4-7c0.4-1.4,1-2.8,1.6-4.1c0.4-0.9,0.7-1.8,1.1-2.8c0.6-1.6,1.1-3.3,1.7-4.9
			c0.5-1.5,1.1-2.9,1.6-4.4c0.6-1.7,1-3.4,1.5-5.1c0-0.1,0-0.1,0.1-0.2c0.6-1.9,1.3-3.7,1.9-5.6c0.4-1.1,0.7-2.2,1-3.3
			c0-0.1,0.3-0.3,0.4-0.3c1.5-0.7,3-1.4,4.4-2c2.1-1,4.4-1.5,6.6-1.9c2.1-0.4,4-0.5,6,0.1c0.8,0.2,1.1,0.8,1.1,1.6
			c0,1.4-0.1,2.7-1,3.8c-0.9,1.1-1.6,2.4-2.5,3.6c-0.3,0.4-0.7,0.8-1.1,1.2c-0.9,1-1.7,2.1-2.6,3.1c-1.2,1.3-2.4,2.6-3.6,3.8
			c-1.7,1.7-3.4,3.5-5.1,5.1c-1.3,1.2-1.6,2.5-0.6,3.9c0.1,0.1,0.1,0.3,0.2,0.3c0.3,0.2,0.6,0.5,0.8,0.4c1.1-0.5,2.2-1.1,3.3-1.8
			c2.4-1.5,4.9-2.9,7.4-4.1l0,0c0,0,0.4-0.2,1-0.4c0.1,0,0.2-0.1,0.2-0.1c0,0,0,0,0.1,0c1.1-0.4,2.8-0.8,3.9-0.5l0,0
			c0.7,0.1,1.3,0.4,2,0.8c1,0.6,1.6,1.6,2.2,2.6c0.9,1.5,1,3.3,1.2,5c0.2,1.2-0.1,2.5-0.2,3.7c-0.3,2.9-1,5.6-2.2,8.3
			c-0.5,1-0.8,2.1-1.3,3.1c-0.5,1.1-1,2.2-1.6,3.3c-0.5,1-1.1,1.9-1.7,2.8c-0.9,1.4-1.8,2.9-2.9,4.3c-1.1,1.5-2.4,2.9-3.7,4.1
			c-2.3,2.1-4.6,4.2-7.1,6c-1.8,1.3-3.9,2.4-6,3.3c-2.8,1.2-5.6,2.2-8.5,3c-1.9,0.6-3.9,0.9-5.9,1c-2.5,0.1-5.1-0.1-7.6-0.3
			c-0.6,0-1-0.5-0.9-1.2c0.2-1.1,0.5-2.2,0.6-3.3c0-0.3-0.1-0.7-0.3-0.9c-0.1-0.1-0.6-0.1-0.8,0.1c-0.6,0.6-1.3,1.2-1.8,1.9
			c-1.6,2.2-0.6,6.1,2.1,6.5c2.2,0.4,4.5,0.7,6.6,0.5c3.6-0.4,7.2-1.1,10.7-1.9c3.5-0.8,6.8-2.3,9.9-4.1c2.6-1.4,5.1-3,7.3-5.2
			c1.3-1.3,2.7-2.5,4-3.8c1.2-1.3,2.4-2.7,3.5-4.1c1.4-2,2.8-4.1,4.1-6.2c0.6-0.9,1-1.9,1.5-2.9c0.6-1.1,1.2-2.3,1.7-3.5
			c0.5-1.3,0.9-2.7,1.4-4c1.1-2.6,1.3-5.4,1.9-8.2c0.3-1.8-0.1-3.4-0.4-5.1c-0.4-2.6-1.3-4.8-2.9-6.7c-1-1.2-2.2-2.1-3.6-2.4
			c-2.2-0.6-4.5-0.3-6.6,0.7c-0.7,0.3-1.5,0.6-2.2,0.9c-0.1-0.1-0.1-0.2-0.2-0.3c1.2-1.3,2.4-2.6,3.5-3.9c1.8-2.1,3.7-4.1,5.1-6.6
			c0.9-1.6,1.7-3.1,1.8-4.9c0.3-3.1-1.3-5.6-4.1-6.2c-3-0.6-6.1-0.7-9.1,0.4c-1.6,0.5-3.1,1.1-4.6,1.7c-0.8,0.3-1.7,0.7-2.8,1.2
			c1-2.8,1.9-5.4,2.8-8l1.6-4.7c0-0.1,0.1-0.2,0.1-0.3c0.9,1.7,3.7,2.1,5.1,1.6c2.6-1,4.4-3.3,6.4-5.2c0.4-0.4,0.8-0.8,1.1-1.2
			c0,0.1,0.1,0.3,0.1,0.4c0.5,0.9,0.8,1.7,1.5,2.3C408.8,504,410.9,504.2,413.2,503.1 M478,485.6c-0.3-1.5,0.1-4.2,2.7-8.7
			c0.1-0.2,0.2-0.4,0.3-0.5c0,0,0,0,0,0c0.6-1,1.1-1.8,1.5-2.2c0.7-1,1.5-1.8,2.6-2.5c1.2-0.7,2-0.5,2.2,0.8
			c0.5,2.4,0.1,4.7-0.9,6.7c0,0,0,0,0,0c-0.3,0.5-0.6,1-0.9,1.6c-3.2,5.3-5,6.7-6.1,6.8c-0.2,0.1-0.3,0.1-0.4,0l0,0c0,0,0,0,0,0
			c0,0,0,0,0,0c0,0-0.1-0.1-0.2-0.1C478.2,486.8,478,485.6,478,485.6 M381.5,494.8c0.1-0.5,0.2-0.9,0.3-1.4l0.1-0.3
			c0.1-0.3,0.2-0.7,0.3-1c0.1-0.3,0.2-0.6,0.4-0.9c0.1-0.1,0.1-0.3,0.2-0.4c0.2-0.4,0.4-0.9,0.7-1.3c0.3-0.5,0.7-1,1.1-1.4l0.1-0.1
			c0.2-0.2,0.3-0.4,0.5-0.6c0.1-0.1,0.1-0.1,0.2-0.2c0,0.1,0.1,0.3,0,0.4c-0.1,0.3-0.1,0.5-0.2,0.8c0,0.2-0.1,0.3-0.1,0.5
			c-0.2,0.8-0.6,1.5-0.9,2.1l-0.1,0.2c-0.1,0.2-0.2,0.4-0.3,0.7c-0.2,0.3-0.3,0.6-0.5,0.9c-0.1,0.3-0.3,0.5-0.5,0.8
			c-0.1,0.2-0.2,0.4-0.4,0.6c-0.2,0.3-0.3,0.5-0.5,0.8c-0.1,0.2-0.2,0.4-0.3,0.6C381.4,495.3,381.5,495,381.5,494.8 M409.8,497.4
			c-0.3-1.5,0.1-4.2,2.7-8.7c0.1-0.2,0.2-0.4,0.3-0.5c0,0,0,0,0,0c0.6-1,1.1-1.8,1.6-2.2c0.7-1,1.5-1.8,2.6-2.5
			c1.2-0.7,2-0.5,2.2,0.8c0.5,2.4,0.1,4.7-0.9,6.7c0,0,0,0,0,0c-0.3,0.5-0.6,1-0.9,1.6c-3.2,5.3-5,6.7-6.1,6.8
			c-0.2,0.1-0.3,0.1-0.4,0l0,0c0,0,0,0,0,0c0,0,0,0,0,0c0,0-0.1-0.1-0.2-0.1C409.9,498.7,409.8,497.4,409.8,497.4"/>
	</g>
</g>
</svg>
